<?xml version="1.0" encoding="utf-8"?>
<!-- Generator: Adobe Illustrator 25.3.0, SVG Export Plug-In . SVG Version: 6.00 Build 0)  -->
<svg version="1.1" xmlns="http://www.w3.org/2000/svg" xmlns:xlink="http://www.w3.org/1999/xlink" x="0px" y="0px"
	 viewBox="0 0 266.56 273.6" style="enable-background:new 0 0 266.56 273.6;" xml:space="preserve">
<style type="text/css">
	.st0{fill:#151213;}
	.st1{fill:#1B1311;}
	.st2{fill:#FFFFFF;}
</style>
<g id="Camada_1">
</g>
<g id="Camada_2">
	<g>
		<g>
			<path class="st0" d="M133.27,13.97L26.9,75.38v122.85l106.37,61.41l106.39-61.41V75.38L133.27,13.97z M228.53,191.81
				l-95.26,54.99l-95.24-54.99V81.8l95.24-54.99l95.26,54.99V191.81z"/>
		</g>
	</g>
	<polygon class="st0" points="239.66,75.38 239.66,198.23 133.27,259.63 133.27,13.97 	"/>
	<g>
		<rect x="79.68" y="164.54" class="st1" width="11.13" height="60.95"/>
	</g>
	<polygon class="st2" points="186.88,105.85 133.28,74.92 133.28,87.77 175.75,112.28 175.75,161.32 133.28,185.84 133.28,198.69 
		186.88,167.75 	"/>
	<polygon class="st1" points="133.28,185.84 90.81,161.32 90.81,112.28 133.28,87.77 133.28,87.77 133.28,74.92 133.28,74.92 
		79.68,105.86 79.68,167.75 133.28,198.69 133.28,198.69 133.28,185.84 	"/>
</g>
</svg>
